<svg width="27" height="33" viewBox="0 0 27 33" fill="none" xmlns="http://www.w3.org/2000/svg">
<g clip-path="url(#clip0_6_2160)">
<path d="M13.4998 19.5807C16.9927 19.5807 19.8332 16.7402 19.8332 13.2474C19.8332 9.75456 16.9927 6.91406 13.4998 6.91406C10.007 6.91406 7.1665 9.75456 7.1665 13.2474C7.1665 16.7402 10.007 19.5807 13.4998 19.5807ZM13.4998 10.0807C15.2463 10.0807 16.6665 11.501 16.6665 13.2474C16.6665 14.9938 15.2463 16.4141 13.4998 16.4141C11.7534 16.4141 10.3332 14.9938 10.3332 13.2474C10.3332 11.501 11.7534 10.0807 13.4998 10.0807Z" fill="#2091F9"/>
<path d="M12.2487 31.9527C12.5167 32.1441 12.8378 32.247 13.1671 32.247C13.4963 32.247 13.8174 32.1441 14.0854 31.9527C14.5667 31.6123 25.8796 23.4439 25.8337 13.2472C25.8337 6.26315 20.1511 0.580566 13.1671 0.580566C6.18297 0.580566 0.500384 6.26315 0.500384 13.2393C0.454467 23.4439 11.7674 31.6123 12.2487 31.9527ZM13.1671 3.74723C18.4063 3.74723 22.667 8.00798 22.667 13.2551C22.7003 20.282 15.7194 26.5916 13.1671 28.661C10.6163 26.59 3.6338 20.2788 3.66705 13.2472C3.66705 8.00798 7.9278 3.74723 13.1671 3.74723Z" fill="#0D89CA"/>
</g>
<defs>
<clipPath id="clip0_6_2160">
<rect width="26" height="32" fill="white" transform="translate(0.5 0.414062)"/>
</clipPath>
</defs>
</svg>
