<svg width="27" height="23" viewBox="0 0 27 23" fill="none" xmlns="http://www.w3.org/2000/svg">
<g clip-path="url(#clip0_6_2172)">
<path d="M25.3125 1.60156H0.9375C0.418945 1.60156 0 2.02051 0 2.53906V21.2891C0 21.8076 0.418945 22.2266 0.9375 22.2266H25.3125C25.8311 22.2266 26.25 21.8076 26.25 21.2891V2.53906C26.25 2.02051 25.8311 1.60156 25.3125 1.60156ZM24.1406 4.84766V20.1172H2.10938V4.84766L1.30078 4.21777L2.45215 2.73828L3.70605 3.71387H22.5469L23.8008 2.73828L24.9521 4.21777L24.1406 4.84766ZM22.5469 3.71094L13.125 11.0352L3.70312 3.71094L2.44922 2.73535L1.29785 4.21484L2.10645 4.84473L12.1143 12.626C12.4021 12.8496 12.7561 12.9709 13.1206 12.9709C13.4851 12.9709 13.8391 12.8496 14.127 12.626L24.1406 4.84766L24.9492 4.21777L23.7979 2.73828L22.5469 3.71094Z" fill="#0D89CA"/>
</g>
<defs>
<clipPath id="clip0_6_2172">
<rect width="27" height="22" fill="white" transform="translate(0 0.914062)"/>
</clipPath>
</defs>
</svg>
