<svg width="33" height="33" viewBox="0 0 33 33" fill="none" xmlns="http://www.w3.org/2000/svg">
<path d="M31.7106 0.0820312H2.25153C1.54307 0.0820312 0.970703 0.654403 0.970703 1.36286V30.822C0.970703 31.5304 1.54307 32.1028 2.25153 32.1028H31.7106C32.4191 32.1028 32.9915 31.5304 32.9915 30.822V1.36286C32.9915 0.654403 32.4191 0.0820312 31.7106 0.0820312ZM28.0122 9.4281H25.4546C23.4493 9.4281 23.061 10.3807 23.061 11.7816V14.8676H27.8481L27.2237 19.6988H23.061V32.1028H18.0698V19.7028H13.8951V14.8676H18.0698V11.3053C18.0698 7.17063 20.5954 4.91717 24.2858 4.91717C26.055 4.91717 27.572 5.04925 28.0163 5.10929V9.4281H28.0122Z" fill="#0D89CA"/>
</svg>
