<svg width="33" height="33" viewBox="0 0 33 33" fill="none" xmlns="http://www.w3.org/2000/svg">
<path d="M31.698 0.0820312H2.23884C1.53038 0.0820312 0.958008 0.654403 0.958008 1.36286V30.822C0.958008 31.5304 1.53038 32.1028 2.23884 32.1028H31.698C32.4064 32.1028 32.9788 31.5304 32.9788 30.822V1.36286C32.9788 0.654403 32.4064 0.0820312 31.698 0.0820312ZM10.4562 27.3677H5.70509V12.0858H10.4562V27.3677ZM8.08263 9.99646C7.53798 9.99646 7.00557 9.83496 6.55271 9.53237C6.09985 9.22978 5.74689 8.79969 5.53846 8.29651C5.33004 7.79332 5.2755 7.23962 5.38176 6.70544C5.48801 6.17126 5.75029 5.68058 6.13541 5.29546C6.52053 4.91033 7.01121 4.64806 7.54539 4.5418C8.07958 4.43555 8.63327 4.49008 9.13646 4.69851C9.63965 4.90694 10.0697 5.2599 10.3723 5.71276C10.6749 6.16561 10.8364 6.69803 10.8364 7.24268C10.8324 8.76366 9.59962 9.99646 8.08263 9.99646ZM28.2437 27.3677H23.4966V19.9349C23.4966 18.1618 23.4646 15.8843 21.027 15.8843C18.5574 15.8843 18.1772 17.8135 18.1772 19.8068V27.3677H13.4341V12.0858H17.9891V14.1752H18.0531C18.6855 12.9744 20.2345 11.7056 22.548 11.7056C27.3591 11.7056 28.2437 14.8716 28.2437 18.9863V27.3677Z" fill="#0D89CA"/>
</svg>
