<svg width="34" height="28" viewBox="0 0 34 28" fill="none" xmlns="http://www.w3.org/2000/svg">
<path d="M33.645 3.77758C32.4202 4.30592 31.0873 4.68617 29.7144 4.83426C31.1398 3.98746 32.2072 2.64964 32.7164 1.07182C31.3788 1.8675 29.9136 2.42544 28.3855 2.72089C27.7469 2.03816 26.9745 1.49426 26.1165 1.12309C25.2585 0.751916 24.3332 0.561428 23.3983 0.563493C19.6159 0.563493 16.5739 3.62948 16.5739 7.39192C16.5739 7.92027 16.6379 8.44861 16.742 8.95694C11.0783 8.66075 6.02705 5.95499 2.66887 1.8123C2.05697 2.85744 1.73632 4.04746 1.74026 5.25854C1.74026 7.62808 2.94505 9.71743 4.78224 10.9462C3.69955 10.9036 2.64222 10.606 1.69624 10.0777V10.1617C1.69624 13.4799 4.04176 16.2297 7.16779 16.8621C6.58084 17.0145 5.97704 17.0925 5.37062 17.0942C4.92633 17.0942 4.50606 17.0502 4.08178 16.9902C4.94634 19.6959 7.46398 21.6612 10.4619 21.7252C8.1164 23.5624 5.1785 24.6431 1.98843 24.6431C1.41605 24.6431 0.887711 24.6231 0.339355 24.5591C3.36532 26.5003 6.95565 27.6211 10.8222 27.6211C23.3743 27.6211 30.2428 17.2223 30.2428 8.19645C30.2428 7.90025 30.2428 7.60406 30.2227 7.30787C31.5516 6.33524 32.7164 5.13046 33.645 3.77758Z" fill="#0D89CA"/>
</svg>
